<svg width="1200" height="360" viewBox="0 0 1200 360" fill="none" xmlns="http://www.w3.org/2000/svg">
  <defs>
    <linearGradient id="bg" x1="86" y1="32" x2="1110" y2="336" gradientUnits="userSpaceOnUse">
      <stop stop-color="#FFF9F2"/>
      <stop offset="0.58" stop-color="#F8E9E1"/>
      <stop offset="1" stop-color="#F2DDD6"/>
    </linearGradient>
    <linearGradient id="ink" x1="108" y1="86" x2="272" y2="286" gradientUnits="userSpaceOnUse">
      <stop stop-color="#CB5475"/>
      <stop offset="0.45" stop-color="#C96A33"/>
      <stop offset="1" stop-color="#8A2F24"/>
    </linearGradient>
  </defs>
  <rect width="1200" height="360" rx="56" fill="url(#bg)"/>
  <rect x="40" y="40" width="284" height="284" rx="84" fill="#FBF1E3"/>
  <circle cx="182" cy="182" r="94" fill="#FFFDF8" stroke="#ECD7CF" stroke-width="6"/>

  <g stroke="url(#ink)" stroke-linecap="round" stroke-linejoin="round" fill="none">
    <path d="M182 96C188 109 199 118 213 122C199 126 188 137 182 151C176 137 165 126 151 122C165 118 176 109 182 96Z" stroke-width="4.2"/>
    <path d="M151 122C161 126 167 134 170 144" stroke-width="2.8"/>
    <path d="M213 122C203 126 197 134 194 144" stroke-width="2.8"/>
    <path d="M164 158C171 152 177 149 182 149C187 149 193 152 200 158" stroke-width="3.3"/>
    <path d="M151 172C162 164 172 160 182 160C192 160 202 164 213 172" stroke-width="3.6"/>
    <path d="M161 190C167 182 174 178 182 178C190 178 197 182 203 190" stroke-width="3.2"/>
    <path d="M151 172C148 187 148 201 151 215" stroke-width="3"/>
    <path d="M213 172C216 187 216 201 213 215" stroke-width="3"/>
    <path d="M158 216C167 221 175 228 182 237C189 228 197 221 206 216" stroke-width="3.5"/>
  </g>

  <g fill="#8A2F24">
    <circle cx="182" cy="160" r="3.3"/>
    <circle cx="182" cy="178" r="3.3"/>
    <circle cx="182" cy="196" r="3.3"/>
  </g>
  <g fill="#CB5475">
    <circle cx="151" cy="122" r="4"/>
    <circle cx="213" cy="122" r="4"/>
  </g>
  <g fill="#EFA53A">
    <circle cx="182" cy="96" r="4"/>
  </g>

  <text x="392" y="160" fill="#341D1B" font-family="'Cormorant Garamond', Georgia, serif" font-size="112" font-weight="700" letter-spacing="1.4">Mehndi Aura</text>
  <text x="398" y="219" fill="#765352" font-family="'Manrope', Arial, sans-serif" font-size="28" font-weight="600" letter-spacing="7">BRIDAL AND CELEBRATION MEHNDI</text>
  <path d="M398 250H1112" stroke="#E9C3B4" stroke-width="4"/>
</svg>
