<svg width="1200" height="360" viewBox="0 0 1200 360" fill="none" xmlns="http://www.w3.org/2000/svg">
  <defs>
    <linearGradient id="wmBg" x1="86" y1="24" x2="1114" y2="336" gradientUnits="userSpaceOnUse">
      <stop stop-color="#FFF8EF"/>
      <stop offset="0.58" stop-color="#F7E7DD"/>
      <stop offset="1" stop-color="#F1D7CF"/>
    </linearGradient>
    <linearGradient id="wmInk" x1="84" y1="58" x2="312" y2="292" gradientUnits="userSpaceOnUse">
      <stop stop-color="#CB5475"/>
      <stop offset="0.48" stop-color="#C4542B"/>
      <stop offset="1" stop-color="#8A2F24"/>
    </linearGradient>
  </defs>
  <rect width="1200" height="360" rx="56" fill="url(#wmBg)"/>
  <rect x="40" y="40" width="284" height="284" rx="84" fill="#FBF1E3"/>
  <circle cx="182" cy="182" r="92" fill="#FFF9F3" stroke="#E7C7BF" stroke-width="6"/>
  <path d="M122 236L141 124H157L182 181L206 124H222L241 236H217L208 167L189 204H175L155 167L146 236H122Z" fill="#8A2F24"/>
  <path d="M114 235L134 123H152L182 192L211 123H229L250 235" stroke="url(#wmInk)" stroke-width="8" stroke-linecap="round" stroke-linejoin="round"/>
  <path d="M152 111C145 101 134 95 122 94C127 104 129 115 127 126" stroke="#C4542B" stroke-width="4.5" stroke-linecap="round"/>
  <path d="M212 111C219 101 230 95 242 94C237 104 235 115 237 126" stroke="#C4542B" stroke-width="4.5" stroke-linecap="round"/>
  <path d="M129 144C120 138 110 137 101 140C107 147 111 156 111 165" stroke="#CB5475" stroke-width="4" stroke-linecap="round"/>
  <path d="M235 144C244 138 254 137 263 140C257 147 253 156 253 165" stroke="#CB5475" stroke-width="4" stroke-linecap="round"/>
  <g fill="#CB5475">
    <circle cx="121" cy="91" r="6.5"/>
    <circle cx="243" cy="91" r="6.5"/>
  </g>
  <g fill="#EFA53A">
    <circle cx="182" cy="92" r="6.5"/>
    <circle cx="103" cy="236" r="5.5"/>
    <circle cx="261" cy="236" r="5.5"/>
  </g>
  <text x="392" y="160" fill="#341D1B" font-family="'Cormorant Garamond', Georgia, serif" font-size="112" font-weight="700" letter-spacing="1.4">Mehndi Aura</text>
  <text x="398" y="219" fill="#765352" font-family="'Manrope', Arial, sans-serif" font-size="28" font-weight="600" letter-spacing="7">BRIDAL AND CELEBRATION MEHNDI</text>
  <path d="M398 250H1112" stroke="#E9C3B4" stroke-width="4"/>
</svg>
