<svg width="1200" height="360" viewBox="0 0 1200 360" fill="none" xmlns="http://www.w3.org/2000/svg">
  <defs>
    <linearGradient id="bg" x1="86" y1="32" x2="1110" y2="336" gradientUnits="userSpaceOnUse">
      <stop stop-color="#FFF9F2"/>
      <stop offset="0.58" stop-color="#F8E9E1"/>
      <stop offset="1" stop-color="#F2DDD6"/>
    </linearGradient>
    <linearGradient id="ink" x1="108" y1="86" x2="272" y2="286" gradientUnits="userSpaceOnUse">
      <stop stop-color="#CB5475"/>
      <stop offset="0.45" stop-color="#C96A33"/>
      <stop offset="1" stop-color="#8A2F24"/>
    </linearGradient>
  </defs>
  <rect width="1200" height="360" rx="56" fill="url(#bg)"/>
  <rect x="40" y="40" width="284" height="284" rx="84" fill="#FBF1E3"/>
  <circle cx="182" cy="182" r="94" fill="#FFFDF8" stroke="#ECD7CF" stroke-width="6"/>

  <g stroke="url(#ink)" stroke-linecap="round" stroke-linejoin="round" fill="none">
    <path d="M159 136C166 126 177 121 182 121C187 121 198 126 205 136" stroke-width="3.2"/>
    <path d="M145 154C154 143 168 137 182 137C196 137 210 143 219 154" stroke-width="3.8"/>
    <path d="M154 179C163 173 172 170 182 170C192 170 201 173 210 179" stroke-width="4"/>
    <path d="M154 179C164 184 172 192 178 203" stroke-width="3.1"/>
    <path d="M210 179C200 184 192 192 186 203" stroke-width="3.1"/>
    <path d="M166 206C171 200 176 197 182 197C188 197 193 200 198 206" stroke-width="3.2"/>
    <path d="M160 223C169 228 176 235 182 245C188 235 195 228 204 223" stroke-width="3.8"/>
  </g>

  <g fill="#8A2F24">
    <circle cx="182" cy="170" r="3.2"/>
    <circle cx="182" cy="197" r="3.2"/>
    <circle cx="182" cy="223" r="3.2"/>
  </g>
  <g fill="#CB5475">
    <circle cx="145" cy="154" r="4"/>
    <circle cx="219" cy="154" r="4"/>
  </g>
  <g fill="#EFA53A">
    <circle cx="182" cy="121" r="4"/>
  </g>

  <text x="392" y="160" fill="#341D1B" font-family="'Cormorant Garamond', Georgia, serif" font-size="112" font-weight="700" letter-spacing="1.4">Mehndi Aura</text>
  <text x="398" y="219" fill="#765352" font-family="'Manrope', Arial, sans-serif" font-size="28" font-weight="600" letter-spacing="7">BRIDAL AND CELEBRATION MEHNDI</text>
  <path d="M398 250H1112" stroke="#E9C3B4" stroke-width="4"/>
</svg>
