<svg width="1200" height="360" viewBox="0 0 1200 360" fill="none" xmlns="http://www.w3.org/2000/svg">
  <defs>
    <linearGradient id="bg" x1="88" y1="30" x2="1112" y2="334" gradientUnits="userSpaceOnUse">
      <stop stop-color="#FFF9F2"/>
      <stop offset="0.56" stop-color="#F8E9E0"/>
      <stop offset="1" stop-color="#F2DDD6"/>
    </linearGradient>
    <linearGradient id="ink" x1="104" y1="84" x2="278" y2="286" gradientUnits="userSpaceOnUse">
      <stop stop-color="#CC5A78"/>
      <stop offset="0.45" stop-color="#C86A33"/>
      <stop offset="1" stop-color="#8A2F24"/>
    </linearGradient>
  </defs>
  <rect width="1200" height="360" rx="56" fill="url(#bg)"/>
  <rect x="40" y="40" width="284" height="284" rx="84" fill="#FBF1E3"/>
  <circle cx="182" cy="182" r="94" fill="#FFFDF8" stroke="#ECD4CC" stroke-width="6"/>
  <path d="M148 236V124H163L182 168L201 124H216V236" stroke="url(#ink)" stroke-width="6.5" stroke-linecap="round" stroke-linejoin="round"/>
  <path d="M148 236V155L182 207L216 155V236" stroke="#8A2F24" stroke-width="4.2" stroke-linecap="round" stroke-linejoin="round"/>
  <path d="M182 92C187 105 197 114 210 118C197 122 187 132 182 145C177 132 167 122 154 118C167 114 177 105 182 92Z" fill="#8A2F24"/>
  <path d="M160 103C154 93 144 87 133 86C139 95 141 105 140 116" stroke="#C86A33" stroke-width="3.4" stroke-linecap="round"/>
  <path d="M204 103C210 93 220 87 231 86C225 95 223 105 224 116" stroke="#C86A33" stroke-width="3.4" stroke-linecap="round"/>
  <path d="M128 140C139 137 148 130 155 120" stroke="#CB5475" stroke-width="3.2" stroke-linecap="round"/>
  <path d="M236 140C225 137 216 130 209 120" stroke="#CB5475" stroke-width="3.2" stroke-linecap="round"/>
  <g fill="#CB5475">
    <circle cx="132" cy="85" r="4.8"/>
    <circle cx="232" cy="85" r="4.8"/>
  </g>
  <g fill="#EFA53A">
    <circle cx="182" cy="83" r="4.8"/>
  </g>
  <text x="392" y="160" fill="#341D1B" font-family="'Cormorant Garamond', Georgia, serif" font-size="112" font-weight="700" letter-spacing="1.4">Mehndi Aura</text>
  <text x="398" y="219" fill="#765352" font-family="'Manrope', Arial, sans-serif" font-size="28" font-weight="600" letter-spacing="7">BRIDAL AND CELEBRATION MEHNDI</text>
  <path d="M398 250H1112" stroke="#E9C3B4" stroke-width="4"/>
</svg>
