<svg width="512" height="512" viewBox="0 0 512 512" fill="none" xmlns="http://www.w3.org/2000/svg">
  <defs>
    <linearGradient id="bg" x1="74" y1="48" x2="430" y2="458" gradientUnits="userSpaceOnUse">
      <stop stop-color="#FFF8EF"/>
      <stop offset="0.58" stop-color="#F7E6DB"/>
      <stop offset="1" stop-color="#F0D5CF"/>
    </linearGradient>
    <linearGradient id="ink" x1="135" y1="122" x2="364" y2="396" gradientUnits="userSpaceOnUse">
      <stop stop-color="#CB5475"/>
      <stop offset="0.48" stop-color="#C4542B"/>
      <stop offset="1" stop-color="#8A2F24"/>
    </linearGradient>
  </defs>
  <rect width="512" height="512" rx="128" fill="url(#bg)"/>
  <circle cx="256" cy="256" r="160" fill="#FFF9F3" stroke="#E7C7BF" stroke-width="8"/>
  <path d="M154 348L181 170H204L257 271L308 170H331L358 348H322L309 235L269 314H245L204 235L191 348H154Z" fill="#8A2F24"/>
  <path d="M143 347L171 168H195L256 287L316 168H340L369 347" stroke="url(#ink)" stroke-width="10" stroke-linecap="round" stroke-linejoin="round"/>
  <path d="M196 153C186 138 170 128 153 127C161 141 163 156 160 171" stroke="#C4542B" stroke-width="6" stroke-linecap="round"/>
  <path d="M316 153C326 138 342 128 359 127C351 141 349 156 352 171" stroke="#C4542B" stroke-width="6" stroke-linecap="round"/>
  <path d="M179 198C168 190 154 188 142 192C150 201 155 212 156 224" stroke="#CB5475" stroke-width="5" stroke-linecap="round"/>
  <path d="M333 198C344 190 358 188 370 192C362 201 357 212 356 224" stroke="#CB5475" stroke-width="5" stroke-linecap="round"/>
  <path d="M179 318C165 324 156 335 153 349C165 344 177 344 187 349" stroke="#C4542B" stroke-width="5" stroke-linecap="round"/>
  <path d="M333 318C347 324 356 335 359 349C347 344 335 344 325 349" stroke="#C4542B" stroke-width="5" stroke-linecap="round"/>
  <g fill="#CB5475">
    <circle cx="150" cy="122" r="11"/>
    <circle cx="362" cy="122" r="11"/>
    <circle cx="136" cy="191" r="8"/>
    <circle cx="376" cy="191" r="8"/>
  </g>
  <g fill="#EFA53A">
    <circle cx="148" cy="352" r="8"/>
    <circle cx="364" cy="352" r="8"/>
    <circle cx="256" cy="125" r="10"/>
  </g>
  <g fill="#8A2F24">
    <path d="M256 104C262 116 273 124 286 127C273 130 262 138 256 150C250 138 239 130 226 127C239 124 250 116 256 104Z"/>
    <path d="M256 352C264 367 278 378 294 382C278 386 264 397 256 412C248 397 234 386 218 382C234 378 248 367 256 352Z"/>
  </g>
</svg>
