<svg width="512" height="512" viewBox="0 0 512 512" fill="none" xmlns="http://www.w3.org/2000/svg">
  <defs>
    <linearGradient id="bg" x1="82" y1="54" x2="430" y2="458" gradientUnits="userSpaceOnUse">
      <stop stop-color="#FFF9F2"/>
      <stop offset="0.58" stop-color="#F8E9E1"/>
      <stop offset="1" stop-color="#F2DDD6"/>
    </linearGradient>
    <linearGradient id="ring" x1="126" y1="104" x2="386" y2="408" gradientUnits="userSpaceOnUse">
      <stop stop-color="#F1D8CF"/>
      <stop offset="1" stop-color="#E5C1B8"/>
    </linearGradient>
    <linearGradient id="ink" x1="180" y1="174" x2="332" y2="350" gradientUnits="userSpaceOnUse">
      <stop stop-color="#CB5475"/>
      <stop offset="0.45" stop-color="#C96A33"/>
      <stop offset="1" stop-color="#8A2F24"/>
    </linearGradient>
  </defs>
  <rect width="512" height="512" rx="128" fill="url(#bg)"/>
  <circle cx="256" cy="256" r="156" fill="#FFFDF9" stroke="url(#ring)" stroke-width="8"/>
  <circle cx="256" cy="256" r="126" fill="#FFF9F4"/>

  <g stroke="url(#ink)" stroke-linecap="round" stroke-linejoin="round" fill="none">
    <path d="M205 278C218 251 244 233 279 227C287 226 296 225 304 227C328 231 348 244 362 264" stroke-width="7.2"/>
    <path d="M152 264C165 244 184 231 208 227C216 225 225 226 233 227C248 230 261 236 272 246" stroke-width="7.2"/>

    <path d="M216 224C215 212 219 202 227 194C239 182 255 184 267 195C277 184 293 182 305 194C313 202 317 212 316 224" stroke-width="4.8"/>
    <path d="M198 252C209 243 221 238 236 236" stroke-width="4"/>
    <path d="M312 236C328 239 341 247 352 258" stroke-width="4"/>

    <path d="M237 265C246 258 257 254 272 252C289 250 303 253 315 261" stroke-width="4.8"/>
    <path d="M229 289C243 304 261 312 282 311C302 310 319 300 331 285" stroke-width="4.8"/>
    <path d="M244 325C254 320 264 317 276 317C289 317 300 321 309 328" stroke-width="4.2"/>
    <path d="M261 340C267 351 274 360 284 369" stroke-width="4"/>

    <path d="M179 214C172 205 162 200 151 199C158 208 161 218 161 228" stroke-width="3.4"/>
    <path d="M348 200C359 199 369 204 376 213C367 215 359 221 355 229" stroke-width="3.4"/>
  </g>

  <g fill="#8A2F24">
    <circle cx="233" cy="227" r="4.5"/>
    <circle cx="272" cy="252" r="4.5"/>
    <circle cx="282" cy="311" r="4.5"/>
    <circle cx="276" cy="317" r="4.5"/>
  </g>
  <g fill="#CB5475">
    <circle cx="151" cy="199" r="4.8"/>
    <circle cx="376" cy="213" r="4.8"/>
    <circle cx="208" cy="227" r="4.8"/>
    <circle cx="304" cy="227" r="4.8"/>
  </g>
  <g fill="#EFA53A">
    <circle cx="247" cy="186" r="4.8"/>
    <circle cx="286" cy="186" r="4.8"/>
    <circle cx="244" cy="325" r="4.8"/>
    <circle cx="309" cy="328" r="4.8"/>
  </g>
</svg>
