<svg width="1200" height="360" viewBox="0 0 1200 360" fill="none" xmlns="http://www.w3.org/2000/svg">
  <defs>
    <linearGradient id="bg" x1="84" y1="30" x2="1110" y2="334" gradientUnits="userSpaceOnUse">
      <stop stop-color="#FFF9F3"/>
      <stop offset="0.6" stop-color="#F8E9E1"/>
      <stop offset="1" stop-color="#F2DDD6"/>
    </linearGradient>
    <linearGradient id="ink" x1="112" y1="92" x2="252" y2="282" gradientUnits="userSpaceOnUse">
      <stop stop-color="#C85A78"/>
      <stop offset="0.5" stop-color="#C86A33"/>
      <stop offset="1" stop-color="#8A2F24"/>
    </linearGradient>
  </defs>
  <rect width="1200" height="360" rx="56" fill="url(#bg)"/>
  <rect x="40" y="40" width="284" height="284" rx="84" fill="#FBF1E3"/>
  <circle cx="182" cy="182" r="94" fill="#FFFDF9" stroke="#ECD7CF" stroke-width="6"/>
  <path d="M145 235V121H159L182 168L205 121H219V235" stroke="url(#ink)" stroke-width="7.5" stroke-linecap="round" stroke-linejoin="round"/>
  <path d="M145 235V157L182 202L219 157V235" stroke="#8A2F24" stroke-opacity="0.92" stroke-width="4.8" stroke-linecap="round" stroke-linejoin="round"/>
  <path d="M182 90C186 99 194 106 203 109C194 112 186 120 182 129C178 120 170 112 161 109C170 106 178 99 182 90Z" fill="#8A2F24"/>
  <circle cx="182" cy="81" r="4.5" fill="#EFA53A"/>
  <text x="392" y="160" fill="#341D1B" font-family="'Cormorant Garamond', Georgia, serif" font-size="112" font-weight="700" letter-spacing="1.4">Mehndi Aura</text>
  <text x="398" y="219" fill="#765352" font-family="'Manrope', Arial, sans-serif" font-size="28" font-weight="600" letter-spacing="7">BRIDAL AND CELEBRATION MEHNDI</text>
  <path d="M398 250H1112" stroke="#E9C3B4" stroke-width="4"/>
</svg>
