<svg width="1200" height="630" viewBox="0 0 1200 630" fill="none" xmlns="http://www.w3.org/2000/svg">
  <defs>
    <linearGradient id="scBg" x1="116" y1="52" x2="1030" y2="612" gradientUnits="userSpaceOnUse">
      <stop stop-color="#FFF8EF"/>
      <stop offset="0.55" stop-color="#F7E7DD"/>
      <stop offset="1" stop-color="#F1D7CF"/>
    </linearGradient>
    <linearGradient id="scInk" x1="140" y1="138" x2="438" y2="500" gradientUnits="userSpaceOnUse">
      <stop stop-color="#CB5475"/>
      <stop offset="0.48" stop-color="#C4542B"/>
      <stop offset="1" stop-color="#8A2F24"/>
    </linearGradient>
  </defs>
  <rect width="1200" height="630" rx="48" fill="url(#scBg)"/>
  <circle cx="315" cy="315" r="180" fill="#FFF9F3" stroke="#E7C7BF" stroke-width="8"/>
  <path d="M224 429L260 208H288L316 273L343 208H371L407 429H368L352 288L326 349H306L279 288L263 429H224Z" fill="#8A2F24"/>
  <path d="M214 427L251 207H282L315 324L349 207H379L416 427" stroke="url(#scInk)" stroke-width="12" stroke-linecap="round" stroke-linejoin="round"/>
  <path d="M257 181C244 162 225 150 204 149C213 168 216 188 212 207" stroke="#C4542B" stroke-width="6" stroke-linecap="round"/>
  <path d="M373 181C386 162 405 150 426 149C417 168 414 188 418 207" stroke="#C4542B" stroke-width="6" stroke-linecap="round"/>
  <path d="M245 241C230 231 212 229 196 234C206 246 212 261 214 277" stroke="#CB5475" stroke-width="5.5" stroke-linecap="round"/>
  <path d="M385 241C400 231 418 229 434 234C424 246 418 261 416 277" stroke="#CB5475" stroke-width="5.5" stroke-linecap="round"/>
  <g fill="#CB5475">
    <circle cx="202" cy="145" r="11"/>
    <circle cx="428" cy="145" r="11"/>
    <circle cx="315" cy="145" r="10"/>
  </g>
  <g fill="#EFA53A">
    <circle cx="188" cy="234" r="9"/>
    <circle cx="442" cy="234" r="9"/>
    <circle cx="315" cy="487" r="12"/>
  </g>
  <text x="566" y="258" fill="#341D1B" font-family="'Cormorant Garamond', Georgia, serif" font-size="120" font-weight="700">Mehndi Aura</text>
  <text x="572" y="325" fill="#765352" font-family="'Manrope', Arial, sans-serif" font-size="31" font-weight="600" letter-spacing="8">BRIDAL, FESTIVE AND BESPOKE MEHNDI</text>
  <text x="572" y="398" fill="#5A3D3C" font-family="'Manrope', Arial, sans-serif" font-size="28" font-weight="500">Elegant bridal mehndi, Eid designs, party bookings and celebration henna in the UK.</text>
  <text x="572" y="454" fill="#8A2F24" font-family="'Manrope', Arial, sans-serif" font-size="28" font-weight="700">mehndiaura.co.uk</text>
</svg>
