<svg width="1200" height="630" viewBox="0 0 1200 630" fill="none" xmlns="http://www.w3.org/2000/svg">
  <defs>
    <linearGradient id="bg" x1="112" y1="46" x2="1026" y2="614" gradientUnits="userSpaceOnUse">
      <stop stop-color="#FFF9F2"/>
      <stop offset="0.58" stop-color="#F8E9E1"/>
      <stop offset="1" stop-color="#F2DDD6"/>
    </linearGradient>
    <linearGradient id="ink" x1="170" y1="140" x2="432" y2="492" gradientUnits="userSpaceOnUse">
      <stop stop-color="#CB5475"/>
      <stop offset="0.45" stop-color="#C96A33"/>
      <stop offset="1" stop-color="#8A2F24"/>
    </linearGradient>
  </defs>
  <rect width="1200" height="630" rx="48" fill="url(#bg)"/>
  <circle cx="315" cy="315" r="182" fill="#FFFDF8" stroke="#ECD7CF" stroke-width="8"/>

  <g stroke="url(#ink)" stroke-linecap="round" stroke-linejoin="round" fill="none">
    <path d="M206 322C220 292 247 273 282 264C291 261 303 259 315 259C327 259 339 261 348 264C383 273 410 292 424 322" stroke-width="8"/>
    <path d="M250 267C248 252 252 240 262 231C277 217 299 219 315 234C331 219 353 217 368 231C378 240 382 252 380 267" stroke-width="5.2"/>
    <path d="M254 317C268 304 287 297 315 297C343 297 362 304 376 317" stroke-width="5"/>
    <path d="M271 338C281 328 295 323 315 323C335 323 349 328 359 338" stroke-width="4.6"/>
    <path d="M260 363C275 378 293 385 315 385C337 385 355 378 370 363" stroke-width="4.8"/>
    <path d="M273 401C284 392 298 388 315 388C332 388 346 392 357 401" stroke-width="4.2"/>
  </g>

  <g fill="#8A2F24">
    <circle cx="315" cy="259" r="4.8"/>
    <circle cx="315" cy="297" r="4.8"/>
    <circle cx="315" cy="323" r="4.8"/>
    <circle cx="315" cy="349" r="4.8"/>
    <circle cx="315" cy="388" r="4.8"/>
  </g>
  <g fill="#CB5475">
    <circle cx="282" cy="264" r="5"/>
    <circle cx="348" cy="264" r="5"/>
  </g>
  <g fill="#EFA53A">
    <circle cx="315" cy="234" r="5"/>
    <circle cx="273" cy="401" r="4.8"/>
    <circle cx="357" cy="401" r="4.8"/>
  </g>

  <text x="566" y="258" fill="#341D1B" font-family="'Cormorant Garamond', Georgia, serif" font-size="120" font-weight="700">Mehndi Aura</text>
  <text x="572" y="325" fill="#765352" font-family="'Manrope', Arial, sans-serif" font-size="31" font-weight="600" letter-spacing="8">BRIDAL AND CELEBRATION MEHNDI</text>
  <text x="572" y="398" fill="#5A3D3C" font-family="'Manrope', Arial, sans-serif" font-size="28" font-weight="500">Elegant bridal mehndi, Eid designs, party bookings and celebration henna in the UK.</text>
  <text x="572" y="454" fill="#8A2F24" font-family="'Manrope', Arial, sans-serif" font-size="28" font-weight="700">mehndiaura.co.uk</text>
</svg>
