<svg width="1200" height="630" viewBox="0 0 1200 630" fill="none" xmlns="http://www.w3.org/2000/svg">
  <defs>
    <linearGradient id="bg" x1="112" y1="46" x2="1026" y2="614" gradientUnits="userSpaceOnUse">
      <stop stop-color="#FFF9F2"/>
      <stop offset="0.58" stop-color="#F8E9E1"/>
      <stop offset="1" stop-color="#F2DDD6"/>
    </linearGradient>
    <linearGradient id="ink" x1="170" y1="132" x2="432" y2="496" gradientUnits="userSpaceOnUse">
      <stop stop-color="#CB5475"/>
      <stop offset="0.45" stop-color="#C96A33"/>
      <stop offset="1" stop-color="#8A2F24"/>
    </linearGradient>
  </defs>
  <rect width="1200" height="630" rx="48" fill="url(#bg)"/>
  <circle cx="315" cy="315" r="182" fill="#FFFDF8" stroke="#ECD7CF" stroke-width="8"/>

  <g stroke="url(#ink)" stroke-linecap="round" stroke-linejoin="round" fill="none">
    <path d="M272 194C286 174 307 165 315 165C323 165 344 174 358 194" stroke-width="5"/>
    <path d="M244 223C262 202 287 193 315 193C343 193 368 202 386 223" stroke-width="6"/>
    <path d="M283 214C274 203 261 196 247 195C257 205 262 217 262 230" stroke-width="3.8"/>
    <path d="M347 214C356 203 369 196 383 195C373 205 368 217 368 230" stroke-width="3.8"/>
    <path d="M252 263C271 250 292 243 315 243C338 243 359 250 378 263" stroke-width="6.2"/>
    <path d="M252 263C271 271 287 286 299 307" stroke-width="4.8"/>
    <path d="M378 263C359 271 343 286 331 307" stroke-width="4.8"/>
    <path d="M283 313C292 303 302 298 315 298C328 298 338 303 347 313" stroke-width="4.8"/>
    <path d="M267 355C282 363 297 377 315 400C333 377 348 363 363 355" stroke-width="5.6"/>
    <path d="M292 398C297 412 305 425 315 437C325 425 333 412 338 398" stroke-width="4.6"/>
  </g>

  <g fill="#8A2F24">
    <circle cx="315" cy="243" r="4.8"/>
    <circle cx="315" cy="298" r="4.8"/>
    <circle cx="315" cy="328" r="4.8"/>
    <circle cx="315" cy="355" r="4.8"/>
  </g>
  <g fill="#CB5475">
    <circle cx="247" cy="195" r="5.2"/>
    <circle cx="383" cy="195" r="5.2"/>
  </g>
  <g fill="#EFA53A">
    <circle cx="315" cy="165" r="5.2"/>
    <circle cx="267" cy="355" r="4.8"/>
    <circle cx="363" cy="355" r="4.8"/>
  </g>

  <text x="566" y="258" fill="#341D1B" font-family="'Cormorant Garamond', Georgia, serif" font-size="120" font-weight="700">Mehndi Aura</text>
  <text x="572" y="325" fill="#765352" font-family="'Manrope', Arial, sans-serif" font-size="31" font-weight="600" letter-spacing="8">BRIDAL AND CELEBRATION MEHNDI</text>
  <text x="572" y="398" fill="#5A3D3C" font-family="'Manrope', Arial, sans-serif" font-size="28" font-weight="500">Elegant bridal mehndi, Eid designs, party bookings and celebration henna in the UK.</text>
  <text x="572" y="454" fill="#8A2F24" font-family="'Manrope', Arial, sans-serif" font-size="28" font-weight="700">mehndiaura.co.uk</text>
</svg>
