<svg width="1200" height="630" viewBox="0 0 1200 630" fill="none" xmlns="http://www.w3.org/2000/svg">
  <defs>
    <linearGradient id="bg" x1="114" y1="44" x2="1028" y2="616" gradientUnits="userSpaceOnUse">
      <stop stop-color="#FFF9F3"/>
      <stop offset="0.6" stop-color="#F8E9E1"/>
      <stop offset="1" stop-color="#F2DDD6"/>
    </linearGradient>
    <linearGradient id="ink" x1="172" y1="138" x2="430" y2="490" gradientUnits="userSpaceOnUse">
      <stop stop-color="#C85A78"/>
      <stop offset="0.5" stop-color="#C86A33"/>
      <stop offset="1" stop-color="#8A2F24"/>
    </linearGradient>
  </defs>
  <rect width="1200" height="630" rx="48" fill="url(#bg)"/>
  <circle cx="315" cy="315" r="182" fill="#FFFDF9" stroke="#ECD7CF" stroke-width="8"/>
  <path d="M247 430V202H272L315 281L358 202H383V430" stroke="url(#ink)" stroke-width="11" stroke-linecap="round" stroke-linejoin="round"/>
  <path d="M247 430V306L315 376L383 306V430" stroke="#8A2F24" stroke-opacity="0.92" stroke-width="6.8" stroke-linecap="round" stroke-linejoin="round"/>
  <path d="M315 157C321 171 333 181 347 185C333 189 321 201 315 215C309 201 297 189 283 185C297 181 309 171 315 157Z" fill="#8A2F24"/>
  <circle cx="315" cy="143" r="7" fill="#EFA53A"/>
  <text x="566" y="258" fill="#341D1B" font-family="'Cormorant Garamond', Georgia, serif" font-size="120" font-weight="700">Mehndi Aura</text>
  <text x="572" y="325" fill="#765352" font-family="'Manrope', Arial, sans-serif" font-size="31" font-weight="600" letter-spacing="8">BRIDAL, FESTIVE AND BESPOKE MEHNDI</text>
  <text x="572" y="398" fill="#5A3D3C" font-family="'Manrope', Arial, sans-serif" font-size="28" font-weight="500">Elegant bridal mehndi, Eid designs, party bookings and celebration henna in the UK.</text>
  <text x="572" y="454" fill="#8A2F24" font-family="'Manrope', Arial, sans-serif" font-size="28" font-weight="700">mehndiaura.co.uk</text>
</svg>
